<?xml version="1.0" encoding="UTF-8" standalone="no"?>
<!-- Created with Inkscape (http://www.inkscape.org/) -->

<svg
   width="300mm"
   height="200mm"
   viewBox="0 0 300 200"
   version="1.1"
   id="svg1"
   inkscape:version="1.4.2 (f4327f4, 2025-05-13)"
   sodipodi:docname="apollo-logo.svg"
   xmlns:inkscape="http://www.inkscape.org/namespaces/inkscape"
   xmlns:sodipodi="http://sodipodi.sourceforge.net/DTD/sodipodi-0.dtd"
   xmlns="http://www.w3.org/2000/svg"
   xmlns:svg="http://www.w3.org/2000/svg">
  <sodipodi:namedview
     id="namedview1"
     pagecolor="#505050"
     bordercolor="#ffffff"
     borderopacity="1"
     inkscape:showpageshadow="0"
     inkscape:pageopacity="0"
     inkscape:pagecheckerboard="1"
     inkscape:deskcolor="#505050"
     inkscape:document-units="mm"
     showgrid="false"
     inkscape:zoom="0.39937447"
     inkscape:cx="482.00377"
     inkscape:cy="656.02591"
     inkscape:window-width="1440"
     inkscape:window-height="878"
     inkscape:window-x="-6"
     inkscape:window-y="-6"
     inkscape:window-maximized="1"
     inkscape:current-layer="svg1" />
  <defs
     id="defs1" />
  <path
     d="M 150.0007,99.999997 A 100.00059,100.00059 0 0 0 100.00035,113.39737 100.00059,100.00059 0 0 0 50,200 h 33.33357 a 66.66706,66.66706 0 0 1 33.33356,-57.73533 66.66706,66.66706 0 0 1 33.33357,-8.93111 66.66706,66.66706 0 0 1 33.33355,8.93111 A 66.66706,66.66706 0 0 1 216.66782,200 h 33.33356 A 100.00059,100.00059 0 0 0 200.00104,113.39737 100.00059,100.00059 0 0 0 150.0007,99.999997 Z"
     style="fill:#ff7f2a;stroke-width:0.529169"
     id="path4" />
  <g
     inkscape:label="Layer 1"
     inkscape:groupmode="layer"
     id="layer1" />
  <path
     style="fill:#ffcc00;stroke-width:0.264583"
     id="path5"
     sodipodi:type="arc"
     sodipodi:cx="-150"
     sodipodi:cy="-200"
     sodipodi:rx="50"
     sodipodi:ry="50"
     sodipodi:start="0"
     sodipodi:end="3.1415927"
     sodipodi:open="true"
     sodipodi:arc-type="arc"
     transform="scale(-1)"
     d="m -100,-200 a 50,50 0 0 1 -25,43.30127 50,50 0 0 1 -50,0 A 50,50 0 0 1 -200,-200" />
  <path
     sodipodi:type="star"
     style="fill:#ffcc00;stroke-width:0.264583"
     id="path6"
     inkscape:flatsided="true"
     sodipodi:sides="3"
     sodipodi:cx="48.25079"
     sodipodi:cy="92.753944"
     sodipodi:r1="0"
     sodipodi:r2="59.611736"
     sodipodi:arg1="0.87887496"
     sodipodi:arg2="1.8468459"
     inkscape:rounded="0"
     inkscape:randomized="0"
     d="m 48.25079,92.753944 v 0 z"
     inkscape:transform-center-x="-9.3523497"
     inkscape:transform-center-y="-5.6515877" />
  <path
     sodipodi:type="star"
     style="fill:#ffcc00;stroke-width:0.264583"
     id="path7"
     inkscape:flatsided="true"
     sodipodi:sides="3"
     sodipodi:cx="131.83638"
     sodipodi:cy="96.724174"
     sodipodi:r1="74.812012"
     sodipodi:r2="37.406006"
     sodipodi:arg1="0.52359878"
     sodipodi:arg2="1.5707963"
     inkscape:rounded="0"
     inkscape:randomized="0"
     d="m 196.62548,134.13018 -129.578203,0 64.789103,-112.218017 z"
     inkscape:transform-center-y="-10.825318"
     transform="matrix(0.57880104,0,0,0.57880104,73.692966,12.317217)" />
  <path
     sodipodi:type="star"
     style="fill:#ffcc00;stroke-width:0.264583"
     id="path7-1"
     inkscape:flatsided="true"
     sodipodi:sides="3"
     sodipodi:cx="131.83638"
     sodipodi:cy="96.724174"
     sodipodi:r1="74.812012"
     sodipodi:r2="37.406006"
     sodipodi:arg1="0.52359878"
     sodipodi:arg2="1.5707963"
     inkscape:rounded="0"
     inkscape:randomized="0"
     d="m 196.62548,134.13018 -129.578203,0 64.789103,-112.218017 z"
     transform="matrix(0.20548909,-0.541096,0.541096,0.20548909,177.55948,167.81017)"
     inkscape:transform-center-y="7.6865276"
     inkscape:transform-center-x="3.4633948" />
  <path
     sodipodi:type="star"
     style="fill:#ffcc00;stroke-width:0.264583"
     id="path8"
     inkscape:flatsided="true"
     sodipodi:sides="3"
     sodipodi:cx="131.83638"
     sodipodi:cy="96.724174"
     sodipodi:r1="74.812012"
     sodipodi:r2="37.406006"
     sodipodi:arg1="0.52359878"
     sodipodi:arg2="1.5707963"
     inkscape:rounded="0"
     inkscape:randomized="0"
     d="m 196.62548,134.13018 -129.578203,0 64.789103,-112.218017 z"
     transform="matrix(-0.20548909,-0.541096,-0.541096,0.20548909,123.09231,165.82269)"
     inkscape:transform-center-y="7.6865276"
     inkscape:transform-center-x="-3.463398" />
</svg>
